<?xml version="1.0" encoding="utf-8"?>
<!-- Generator: Adobe Illustrator 23.0.3, SVG Export Plug-In . SVG Version: 6.00 Build 0)  -->
<svg version="1.1" id="Dr._Klein_Logo" xmlns="http://www.w3.org/2000/svg" xmlns:xlink="http://www.w3.org/1999/xlink" x="0px"
	 y="0px" viewBox="0 0 592.5 157.2" style="enable-background:new 0 0 592.5 157.2;" xml:space="preserve">
<style type="text/css">
	.st0{fill-rule:evenodd;clip-rule:evenodd;fill:#B11F30;}
	.st1{fill-rule:evenodd;clip-rule:evenodd;fill:#373C3F;}
	.st2{fill:#373C3F;}
	.st3{fill:#373C3F;stroke:#373C3F;stroke-width:0.75;stroke-miterlimit:10;}
</style>
<g>
	<path class="st0" d="M187.8,43.8c-10.2,0.2-18.2,8.7-18,18.8c0.2,10.2,8.7,18.2,18.8,18c10.2-0.2,18.2-8.7,18-18.8
		C206.4,51.6,198,43.5,187.8,43.8z M188.4,68.5c-3.5,0.1-6.4-2.7-6.5-6.2c-0.1-3.5,2.7-6.4,6.2-6.5s6.4,2.7,6.5,6.2
		C194.6,65.5,191.9,68.4,188.4,68.5z"/>
	<path class="st1" d="M72.5,11.3c-8-7.3-19.8-9.9-33.7-9.9H3.1c-0.3,0-0.5,0.2-0.5,0.5v3.7c0,0.2,0.2,0.5,0.4,0.5
		c9.5,0.8,10.3,1.2,10.3,13.1v38.1C13.3,69,12.5,69.6,2,70.4c-0.2,0-0.4,0.2-0.4,0.5v3.7c0,0.3,0.2,0.5,0.5,0.5H34
		c26.2,0,48.4-12,48.4-39.6C82.5,25.1,78.2,16.5,72.5,11.3z M38.1,69.2C28.2,69.2,27,67,27,58V13.1c0-3.2,0.4-4.5,1-5
		c0.7-0.5,3.8-1.2,7.9-1.2c19.5,0,31,9.1,31,31.6C66.8,57.1,57.9,69.2,38.1,69.2z"/>
	<path class="st1" d="M162.8,71.9c-3.5-1.1-6.4-2.9-8.3-4.8c-2.7-2.6-5.6-6.1-9.6-11.7c-3.3-4.7-8.3-12-10.3-15.6
		c9-3.3,15.6-9.1,15.6-19.2c0-7.3-3.5-12.5-8.2-15.4c-4.8-2.8-11.3-3.8-18.8-3.8H87.8c-0.3,0-0.5,0.2-0.5,0.5v3.7
		c0,0.2,0.2,0.5,0.4,0.5c9.8,0.8,10.6,1.2,10.6,13.1v38.1c0,11.7-0.8,12.3-11.1,13.1c-0.2,0-0.4,0.2-0.4,0.5v3.7
		c0,0.3,0.2,0.5,0.5,0.5H123c0.3,0,0.5-0.2,0.5-0.5v-3.7c0-0.2-0.2-0.5-0.4-0.5c-10.2-0.8-11-1.4-11-13.1V43.8h4.4
		c4.4,0,5.4,0.4,7.6,4.2c2.8,4.6,7.4,12.6,11.3,17.8C140,71.9,146,76.2,159.7,76h2.4c0.2,0,0.4-0.2,0.5-0.4l0.5-3.3
		C163.1,72.2,163,71.9,162.8,71.9z M129.8,35.7c-3.3,2-7.3,2.5-10.7,2.5h-7v-27c0-2.4,0.1-3.2,0.9-3.7c0.9-0.5,2.6-0.6,6.3-0.6
		c8.8,0,16.3,4.8,16.3,15.2C135.6,27.1,133.8,33.1,129.8,35.7z"/>
	<path class="st2" d="M266.3,1.5c0.3,0,0.5,0.2,0.5,0.5v3.7c0,0.2-0.2,0.5-0.4,0.5c-9.7,0.8-10.5,1.2-10.5,13.1v17.2
		c6.5-5.8,23-22.3,26.4-25.7c2.8-2.9,3.3-3.7-2-4.3l-2.9-0.3c-0.2,0-0.4-0.3-0.4-0.5V1.9c0-0.3,0.2-0.5,0.5-0.5H308
		c0.2,0,0.5,0.2,0.5,0.5v3.7c0,0.2-0.2,0.4-0.4,0.5c-7.1,0.8-10.6,1.6-18,7.2c-4.3,3.4-13.4,11.3-22,19.2
		c10.7,12.4,22.6,24.8,28,30.1c6.1,6,9,7.1,14.1,7.7c0.2,0,0.4,0.3,0.4,0.5v3.8c0,0.2-0.2,0.5-0.5,0.5h-20.7c-0.1,0-0.3-0.1-0.3-0.1
		c-5.3-5.7-25.1-27.9-33.1-35.9v18.3c0,11.7,0.8,12.3,11.1,13.1c0.2,0,0.4,0.2,0.4,0.5v3.8c0,0.2-0.2,0.5-0.5,0.5h-35
		c-0.3,0-0.5-0.2-0.5-0.5V71c0-0.2,0.2-0.5,0.4-0.5c9.5-0.8,10.3-1.4,10.3-13.1V19.2c0-11.8-0.8-12.3-11-13.1
		c-0.2,0-0.4-0.2-0.4-0.5V1.9c0-0.3,0.2-0.5,0.5-0.5h35V1.5z"/>
	<path class="st2" d="M317.7,75.1c-0.2,0-0.5-0.2-0.5-0.5v-3.7c0-0.2,0.2-0.5,0.4-0.5c11.1-0.6,11.8-1.2,11.8-13.2v-38
		c0-12-0.8-12.4-11-13.1c-0.2,0-0.4-0.2-0.4-0.5V1.9c0-0.3,0.2-0.5,0.5-0.5h36.4c0.3,0,0.5,0.2,0.5,0.5v3.7c0,0.2-0.2,0.5-0.4,0.5
		c-11,0.6-11.8,1.1-11.8,13.1v38.5c0,6.4,0.9,9.3,2.8,10.3c2.2,1.1,5.5,1.3,11.5,1.3c6.3,0,11.4-1.2,13.8-3.9
		c1.9-1.9,3.8-5.5,5.4-10.7c0.1-0.2,0.3-0.4,0.5-0.3l4.2,0.5c0.3,0,0.5,0.3,0.4,0.6c-0.8,3.8-3.3,16.3-4.2,19.4
		c0,0.1-0.3,0.3-0.5,0.3h-59.4L317.7,75.1L317.7,75.1z"/>
	<path class="st2" d="M397.4,19.2c0-11.9-0.7-12.4-10.6-13.1c-0.2,0-0.4-0.2-0.4-0.5V1.9c0-0.3,0.2-0.5,0.5-0.5h57.5
		c0.2,0,0.5,0.2,0.5,0.4c0.2,3.1,0.7,10.7,1.3,18.2c0,0.3-0.2,0.5-0.4,0.5l-4.1,0.3c-0.2,0-0.5-0.2-0.5-0.4
		c-1.1-5.7-2.4-8.7-3.9-10.2s-4.9-3.1-12.7-3.1h-9.1c-2.4,0-3.3,0-3.8,0.4c-0.2,0.1-0.3,0.4-0.4,0.9c-0.1,0.6-0.1,1.3-0.1,2.3v22.7
		h12.4c10.1,0,10.2-0.5,11.4-8.6c0-0.2,0.3-0.4,0.5-0.4h4.1c0.3,0,0.5,0.2,0.5,0.5v24c0,0.3-0.2,0.5-0.5,0.5h-4.1
		c-0.2,0-0.4-0.2-0.5-0.4c-1.3-8.7-1.4-9-11.4-9h-12.4v17.3c0,6.4,0.9,9.7,2.8,10.7c2.2,1.1,5.4,1.3,12.8,1.3c6.9,0,11.9-1,14.3-3.4
		c1.9-1.9,4.1-5.4,5.7-10.9c0.1-0.2,0.3-0.4,0.5-0.3l4.2,0.5c0.3,0,0.5,0.3,0.4,0.6c-0.8,4.2-3.3,16-4.3,19.1c0,0.1-0.3,0.3-0.4,0.3
		h-61.6c-0.2,0-0.5-0.2-0.5-0.5V71c0-0.2,0.2-0.5,0.4-0.5c11.1-0.8,11.8-1.4,11.8-13.2V19.2H397.4z"/>
	<path class="st2" d="M482.9,57.3c0,11.7,0.8,12.3,11,13.1c0.2,0,0.4,0.2,0.4,0.5v3.7c0,0.3-0.2,0.5-0.5,0.5h-35.5
		c-0.2,0-0.5-0.2-0.5-0.5v-3.7c0-0.2,0.2-0.5,0.4-0.5c10.2-0.8,11-1.4,11-13.1V19.2c0-11.8-0.8-12.3-11-13.1c-0.2,0-0.4-0.2-0.4-0.5
		V1.9c0-0.2,0.2-0.5,0.5-0.5h35.5c0.3,0,0.5,0.2,0.5,0.5v3.7c0,0.2-0.2,0.5-0.4,0.5c-10.2,0.8-11,1.2-11,13.1V57.3z"/>
	<path class="st2" d="M572.1,54.4V32.7c0-11.7-0.5-17.4-1-21c-0.6-3.5-3.8-5.1-11.9-5.6c-0.2,0-0.4-0.2-0.4-0.5V1.9
		c0-0.3,0.2-0.5,0.5-0.5h31.1c0.3,0,0.5,0.2,0.5,0.5v3.7c0,0.2-0.2,0.5-0.5,0.5c-6.8,0.3-9.9,2.1-10.5,5.6c-0.5,3.6-1,9.3-1,20.9
		v42.7c0,0.3-0.2,0.5-0.5,0.5h-5.2c-0.1,0-0.3-0.1-0.4-0.2l-49.1-54.7v22.7c0,11.7,0.5,17.4,1,20.8c0.4,3.5,3.6,5.3,11.8,5.8
		c0.2,0,0.4,0.2,0.4,0.5v3.7c0,0.3-0.2,0.5-0.5,0.5h-31c-0.2,0-0.5-0.2-0.5-0.5v-3.7c0-0.2,0.2-0.5,0.5-0.5
		c6.8-0.3,9.9-2.2,10.5-5.8c0.5-3.4,1-9.1,1-20.8V22c0-12.8-2.5-15-13.3-15.8c-0.2,0-0.4-0.2-0.4-0.5V1.9c0-0.3,0.2-0.5,0.5-0.5h20
		c0.1,0,0.3,0.1,0.4,0.2L572.1,54.4z"/>
	<g>
		<path class="st3" d="M7.4,123.6h7.3c9.7,0,14.3,6.2,14.3,15.9s-4.6,16.1-14.2,16.1H7.4V123.6z M14.4,153.8
			c8.5,0,12.2-5.9,12.2-14.3c0-8.3-3.7-14-12.2-14H9.6v28.3H14.4z"/>
		<path class="st3" d="M36,124.8c0-1.2,0.9-1.9,1.9-1.9s1.9,0.7,1.9,1.9c0,1.1-0.9,1.9-1.9,1.9S36,125.9,36,124.8z M36.9,132.3H39
			v23.3h-2.1V132.3z"/>
		<path class="st3" d="M46.5,144.1c0-7.6,4.9-12.3,10-12.3c5.4,0,8.8,3.9,8.8,10.8c0,0.6,0,1.2-0.1,1.8H48.7
			c0.1,5.9,3.5,10.1,8.6,10.1c2.5,0,4.4-0.8,6.2-2.1l0.9,1.7c-1.8,1.1-3.9,2.3-7.2,2.3C51.2,156.3,46.5,151.7,46.5,144.1z
			 M63.3,142.5c0-6-2.6-9-6.7-9c-3.9,0-7.4,3.4-7.9,9H63.3z"/>
		<path class="st3" d="M84.6,123.6h7.9c7.1,0,11.4,2.3,11.4,8.9c0,6.3-4.2,9.3-11.2,9.3h-5.9v13.8h-2.2
			C84.6,155.6,84.6,123.6,84.6,123.6z M92.2,140c6.4,0,9.5-2.2,9.5-7.4c0-5.4-3.2-7.1-9.7-7.1h-5.2V140H92.2z"/>
		<path class="st3" d="M108.1,149.8c0-5.2,4.6-7.6,14.8-8.8c0-3.5-0.9-7.4-5.4-7.4c-3.1,0-5.7,1.6-7.3,2.7l-1-1.6
			c1.6-1.2,4.8-3,8.5-3c5.4,0,7.2,4,7.2,9v14.9h-1.8l-0.2-3h-0.1c-2.3,1.9-5.1,3.6-8.1,3.6C111.1,156.3,108.1,154.3,108.1,149.8z
			 M122.9,150.6v-7.9c-9.4,1.1-12.6,3.4-12.6,7.1c0,3.4,2.2,4.7,4.9,4.7C117.7,154.4,120,153.1,122.9,150.6z"/>
		<path class="st3" d="M133.5,132.3h1.8l0.2,4.3h0.1c1.5-2.9,3.8-4.9,6.5-4.9c0.9,0,1.5,0.1,2.3,0.5l-0.5,1.9
			c-0.8-0.3-1.2-0.4-2.1-0.4c-2.1,0-4.5,1.6-6.2,6v15.9h-2.1V132.3z"/>
		<path class="st3" d="M152.6,149.2v-15H149v-1.7l3.6-0.2l0.3-6.8h1.8v6.8h6.6v1.8h-6.6v15.2c0,3,0.7,5,3.9,5c0.9,0,2.1-0.3,2.9-0.7
			l0.6,1.8c-1.3,0.5-2.8,0.9-3.7,0.9C153.9,156.3,152.6,153.4,152.6,149.2z"/>
		<path class="st3" d="M168.8,132.3h1.8l0.2,3.6h0.1c2.3-2.4,4.7-4.2,7.9-4.2c4.7,0,6.9,2.9,6.9,9v15h-2.1V141c0-5-1.5-7.3-5.2-7.3
			c-2.7,0-4.7,1.5-7.5,4.4v17.6h-2.1L168.8,132.3L168.8,132.3z"/>
		<path class="st3" d="M192.9,144.1c0-7.6,4.9-12.3,10-12.3c5.4,0,8.8,3.9,8.8,10.8c0,0.6,0,1.2-0.1,1.8H195
			c0.1,5.9,3.5,10.1,8.6,10.1c2.5,0,4.4-0.8,6.2-2.1l0.9,1.7c-1.8,1.1-3.9,2.3-7.2,2.3C197.6,156.3,192.9,151.7,192.9,144.1z
			 M209.6,142.5c0-6-2.6-9-6.7-9c-3.9,0-7.4,3.4-7.9,9H209.6z"/>
		<path class="st3" d="M219.1,132.3h1.8l0.2,4.3h0.1c1.5-2.9,3.8-4.9,6.5-4.9c0.9,0,1.5,0.1,2.3,0.5l-0.5,1.9
			c-0.8-0.3-1.2-0.4-2.1-0.4c-2.1,0-4.5,1.6-6.2,6v15.9h-2.1V132.3z"/>
		<path class="st3" d="M247.7,134.2h-3.1v-1.7l3.1-0.2v-5.2c0-4.6,2-7,5.7-7c1.1,0,2.3,0.3,3.3,0.8l-0.6,1.8c-1-0.5-1.9-0.7-2.8-0.7
			c-2.4,0-3.6,1.9-3.6,5.3v5.1h5.3v1.8h-5.3v21.5h-2.1v-21.5L247.7,134.2L247.7,134.2z"/>
		<path class="st3" d="M261,147.3v-15h2.1V147c0,5,1.5,7.3,5.2,7.3c2.7,0,4.7-1.5,7.4-4.8v-17.2h2.1v23.3H276l-0.2-3.9h-0.1
			c-2.2,2.7-4.6,4.5-7.8,4.5C263.2,156.3,261,153.3,261,147.3z M263.6,124.8c0-1,0.8-1.8,1.8-1.8s1.8,0.8,1.8,1.8s-0.8,1.8-1.8,1.8
			C264.4,126.6,263.6,125.8,263.6,124.8z M272.1,124.8c0-1,0.8-1.8,1.8-1.8s1.8,0.8,1.8,1.8s-0.8,1.8-1.8,1.8
			C272.9,126.6,272.1,125.8,272.1,124.8z"/>
		<path class="st3" d="M287.1,132.3h1.8l0.2,4.3h0.1c1.5-2.9,3.8-4.9,6.5-4.9c0.9,0,1.5,0.1,2.3,0.5l-0.5,1.9
			c-0.8-0.3-1.2-0.4-2.1-0.4c-2.1,0-4.5,1.6-6.2,6v15.9h-2.1L287.1,132.3L287.1,132.3z"/>
		<path class="st3" d="M315.6,123.6h2.2v32.1h-2.2V123.6z"/>
		<path class="st3" d="M327.4,120.7h2.1V136c2.4-2.4,4.8-4.2,7.9-4.2c4.7,0,6.9,2.9,6.9,9v15h-2.1V141c0-5-1.5-7.3-5.2-7.3
			c-2.7,0-4.7,1.5-7.5,4.4v17.6h-2.1L327.4,120.7L327.4,120.7z"/>
		<path class="st3" d="M353.4,132.3h1.8l0.2,4.3h0.1c1.5-2.9,3.8-4.9,6.5-4.9c0.9,0,1.5,0.1,2.3,0.5l-0.5,1.9
			c-0.8-0.3-1.2-0.4-2.1-0.4c-2,0-4.5,1.6-6.2,6v15.9h-2.1L353.4,132.3L353.4,132.3z"/>
		<path class="st3" d="M367.3,144.1c0-7.6,4.9-12.3,10-12.3c5.4,0,8.8,3.9,8.8,10.8c0,0.6,0,1.2-0.1,1.8h-16.5
			c0.1,5.9,3.5,10.1,8.6,10.1c2.5,0,4.4-0.8,6.1-2.1l0.9,1.7c-1.8,1.1-3.9,2.3-7.2,2.3C372.1,156.3,367.3,151.7,367.3,144.1z
			 M384.1,142.5c0-6-2.6-9-6.7-9c-3.9,0-7.4,3.4-7.9,9H384.1z"/>
		<path class="st3" d="M405.2,123.6h17.1v1.9h-14.9v12.7H420v1.9h-12.6v15.4h-2.2L405.2,123.6L405.2,123.6z"/>
		<path class="st3" d="M428.2,124.8c0-1.2,0.9-1.9,1.9-1.9s1.9,0.7,1.9,1.9c0,1.1-0.9,1.9-1.9,1.9
			C429.1,126.7,428.2,125.9,428.2,124.8z M429,132.3h2.1v23.3H429V132.3z"/>
		<path class="st3" d="M440.8,132.3h1.8l0.2,3.6h0.1c2.3-2.4,4.7-4.2,7.9-4.2c4.7,0,6.9,2.9,6.9,9v15h-2.1V141c0-5-1.5-7.3-5.2-7.3
			c-2.7,0-4.7,1.5-7.5,4.4v17.6h-2.1L440.8,132.3L440.8,132.3z"/>
		<path class="st3" d="M465,149.8c0-5.2,4.6-7.6,14.8-8.8c0-3.5-0.9-7.4-5.4-7.4c-3.1,0-5.7,1.6-7.3,2.7l-1-1.6c1.6-1.2,4.8-3,8.5-3
			c5.4,0,7.2,4,7.2,9v14.9H480l-0.2-3h-0.1c-2.3,1.9-5.1,3.6-8.1,3.6C468,156.3,465,154.3,465,149.8z M479.8,150.6v-7.9
			c-9.4,1.1-12.6,3.4-12.6,7.1c0,3.4,2.2,4.7,4.9,4.7C474.7,154.4,476.9,153.1,479.8,150.6z"/>
		<path class="st3" d="M490.8,132.3h1.8l0.2,3.6h0.1c2.3-2.4,4.7-4.2,7.9-4.2c4.7,0,6.9,2.9,6.9,9v15h-2.1V141c0-5-1.5-7.3-5.2-7.3
			c-2.7,0-4.7,1.5-7.5,4.4v17.6h-2.1L490.8,132.3L490.8,132.3z"/>
		<path class="st3" d="M514.4,154.5l13.5-20.3h-12.1v-1.8h14.8v1.1l-13.5,20.3h14v1.9h-16.7V154.5z"/>
		<path class="st3" d="M535.7,144.1c0-7.6,4.9-12.3,10-12.3c5.4,0,8.8,3.9,8.8,10.8c0,0.6,0,1.2-0.1,1.8h-16.5
			c0.1,5.9,3.5,10.1,8.6,10.1c2.5,0,4.4-0.8,6.1-2.1l0.9,1.7c-1.8,1.1-3.9,2.3-7.2,2.3C540.4,156.3,535.7,151.7,535.7,144.1z
			 M552.4,142.5c0-6-2.6-9-6.7-9c-3.9,0-7.4,3.4-7.9,9H552.4z"/>
		<path class="st3" d="M561.7,132.3h1.8l0.2,3.6h0.1c2.3-2.4,4.7-4.2,7.9-4.2c4.7,0,6.9,2.9,6.9,9v15h-2.1V141c0-5-1.5-7.3-5.2-7.3
			c-2.7,0-4.7,1.5-7.5,4.4v17.6h-2.1L561.7,132.3L561.7,132.3z"/>
		<path class="st3" d="M586.9,154.1c0-1.4,1-2.2,2.1-2.2c1,0,2,0.8,2,2.2s-1,2.2-2,2.2C587.9,156.3,586.9,155.4,586.9,154.1z"/>
	</g>
</g>
</svg>
